<svg id="Layer_1" data-name="Layer 1" xmlns="http://www.w3.org/2000/svg" xmlns:xlink="http://www.w3.org/1999/xlink" viewBox="0 0 586.9 470.07"><defs><style>.cls-1{fill:#fff;}.cls-2{fill:url(#linear-gradient);}.cls-3{fill:#013718;}.cls-4{fill:#042358;}</style><linearGradient id="linear-gradient" x1="822.59" y1="2055" x2="822.59" y2="1707.38" gradientUnits="userSpaceOnUse"><stop offset="0" stop-color="#fff"/><stop offset="0.03" stop-color="#fef2e3"/><stop offset="0.07" stop-color="#fcdeba"/><stop offset="0.12" stop-color="#fbcc94"/><stop offset="0.17" stop-color="#f9bc74"/><stop offset="0.23" stop-color="#f8af58"/><stop offset="0.3" stop-color="#f7a542"/><stop offset="0.38" stop-color="#f79d32"/><stop offset="0.48" stop-color="#f69726"/><stop offset="0.61" stop-color="#f6941f"/><stop offset="0.99" stop-color="#f6931d"/></linearGradient></defs><title>logo</title><path class="cls-1" d="M1113,2067.48l-105.79,32.68-17,5.24L852.09,2148c-17.19,5.42-44.62,5.21-61.82-.21l-151.55-47.19h-.05l-14.28-4.45-71-22.12-20.82-6.48s-7.27-3.6,0-12.58l.22-.3,255-352.82c18.52-25.92,48-26.92,66.55-1l257.83,353.58,0,0c.35.45.6.78.74,1C1120.33,2065.68,1113,2067.48,1113,2067.48Z" transform="translate(-529.35 -1681.93)"/><path class="cls-2" d="M1112.6,2055l-.39-.51,0,0L854.35,1700.88c-18.51-25.92-48-24.92-66.55,1l-255,352.82-.22.3h580Z" transform="translate(-529.35 -1681.93)"/><path class="cls-3" d="M1112.58,2055,852,1752.93c-18.54-21.94-43.35-20.94-61.89,1L532.58,2055,787.8,1701.88c18.52-25.92,48-26.92,66.55-1Z" transform="translate(-529.35 -1681.93)"/><path class="cls-3" d="M1073.08,2055,848,1836.38c-16-15.88-37.44-15.15-53.46.72L572.08,2055l220.46-255.56c16-18.76,41.49-19.49,57.48-.73Z" transform="translate(-529.35 -1681.93)"/><path class="cls-3" d="M1005.35,2052,841.14,1892.49c-11.69-11.58-27.33-11.06-39,.52L639.8,2052l160.86-186.47c11.67-13.68,30.27-14.21,41.94-.53Z" transform="translate(-529.35 -1681.93)"/><polygon class="cls-4" points="95.04 414.25 23.8 392.07 24.05 392.13 95.04 414.25"/><path class="cls-4" d="M1092,2074l-242.07,63.16c-17.22,4.58-40.27,4.37-57.5-.21L553.15,2074l237.12,73.83c17.2,5.42,44.63,5.63,61.82.21Z" transform="translate(-529.35 -1681.93)"/><path class="cls-4" d="M1055.3,2073l-209.09,45.71c-14.88,3.32-34.79,3.17-49.67-.15L589.85,2073l204.82,53.43c14.86,3.93,38.55,4.08,53.4.15Z" transform="translate(-529.35 -1681.93)"/><path class="cls-4" d="M992.38,2072.63,839.82,2106a91.36,91.36,0,0,1-36.24-.11l-150.81-33.24,149.45,39c10.84,2.87,28.12,3,39,.11Z" transform="translate(-529.35 -1681.93)"/><path d="M756.72,2053.52v13.63a2.06,2.06,0,0,0,.44,1.4,3,3,0,0,0,1.5.78v1H745.77v-1a3.11,3.11,0,0,0,1.51-.79,2.06,2.06,0,0,0,.42-1.39v-35a2.11,2.11,0,0,0-.42-1.42,3.11,3.11,0,0,0-1.51-.79v-1h25.79a33.07,33.07,0,0,1,7.16.61,12.6,12.6,0,0,1,4.68,2.09,10.55,10.55,0,0,1,3.27,4,13.31,13.31,0,0,1,1.18,5.51,12.34,12.34,0,0,1-2.24,7.33,10.55,10.55,0,0,1-5.14,3.83,27.84,27.84,0,0,1-8.91,1.13Zm0-6.81H770.5q4.11,0,5.78-.88A4.12,4.12,0,0,0,778,2044a6.16,6.16,0,0,0,0-5.51,4.17,4.17,0,0,0-1.71-1.83c-1.09-.58-3-.88-5.78-.88H756.72Z" transform="translate(-529.35 -1681.93)"/><path d="M818.65,2070.29l-15.24-28.54v25.37a2.11,2.11,0,0,0,.42,1.42,3.11,3.11,0,0,0,1.51.79v1H793.2v-1a3.11,3.11,0,0,0,1.52-.79,2.11,2.11,0,0,0,.42-1.42v-35a2,2,0,0,0-.42-1.39,3.11,3.11,0,0,0-1.52-.79v-1h15.93v1a1.63,1.63,0,0,0-1.42,1.67,3.06,3.06,0,0,0,.42,1.39l11.28,21.36,11.42-21a5.14,5.14,0,0,0,.76-2c0-.82-.51-1.29-1.52-1.39v-1H845.7v1a3.15,3.15,0,0,0-1.52.79,2,2,0,0,0-.42,1.39v35a2.11,2.11,0,0,0,.42,1.42,3.15,3.15,0,0,0,1.52.79v1H832.8v-1a2.93,2.93,0,0,0,1.5-.78,2.11,2.11,0,0,0,.44-1.43v-25.37Z" transform="translate(-529.35 -1681.93)"/><path d="M893.17,2056.1l5.75,8.61-.79.55a2.33,2.33,0,0,0-1.39-.79,10.79,10.79,0,0,0-3.06,1.45,41.68,41.68,0,0,1-8.76,4,30.07,30.07,0,0,1-8.46,1.05q-9.78,0-16.05-4.63a19.54,19.54,0,0,1-5.81-6.69,20.94,20.94,0,0,1-2.45-10.08,20.35,20.35,0,0,1,4.39-13q6.6-8.33,20-8.32a30.38,30.38,0,0,1,8.41,1,43,43,0,0,1,8.78,4.06,10.9,10.9,0,0,0,3.06,1.42,2.36,2.36,0,0,0,1.39-.78l.79.54-5.75,8.63-.82-.54a6.86,6.86,0,0,0,.06-.82,2.3,2.3,0,0,0-.76-1.64,12.92,12.92,0,0,0-2.69-1.86,22.8,22.8,0,0,0-11.35-3q-7.1,0-11.3,3.54a14.29,14.29,0,0,0,0,21.65q4.22,3.54,11.3,3.54a22.72,22.72,0,0,0,11.35-3,12.92,12.92,0,0,0,2.69-1.86,2.34,2.34,0,0,0,.76-1.65,6.15,6.15,0,0,0-.06-.79Z" transform="translate(-529.35 -1681.93)"/></svg>